PathFileType	4	(X/Y/Z)	Kaydara	
DataRate	CameraRate	NumFrames	NumMarkers	Units	OrigDataRate	OrigDataStartFrame	OrigNumFrames	
60.00	60.00	4	74	mm	60.00	1034	121	
Frame#	Time	Z_lasi			Z_rasi			Z_rpsi			Z_lpsi			Z_fneck			Z_bneck			Z_fhead			Z_rhead			Z_lhead			Z_rshld			Z_relbtop			Z_relbext			Z_relblow			Z_rwrext			Z_rwrtop			Z_rwrlow			Z_lshld			Z_lelbext			Z_lelblow			Z_lelbtop			Z_lwrext			Z_lwrtop			Z_lwrlow			Z_rtopleg			Z_ltopleg			Z_rkneefr			Z_rkneebk			Z_rkneeis			Z_lkneefr			Z_lknssbk			Z_lkneeis			Z_rankfr			Z_rankis			Z_rankbk			Z_lankfr			Z_lankbk			Z_lankis			A_lasi			A_rasi			A_rpsi			A_lpsi			A_fneck			A_bneck			A_fhead			A_rhead			A_lhead			A_rshld			A_relbtop			A_relbext			A_relblow			A_rwrext			A_rwrtop			A_rwrlow			A_lshld			A_lelbext			A_lelblow			A_lelbtop			A_lwrext			A_lwrtop			A_lwrlow			A_rtopleg			A_ltopleg			A_rkneefr			A_rkneebk			A_rkneeis			A_lkneefr			A_lknssbk			A_lkneeis			A_rankfr			A_rankis			A_rankbk			A_lankfr			A_lankbk			A_lankis			
		X1	Y1	Z1	X2	Y2	Z2	X3	Y3	Z3	X4	Y4	Z4	X5	Y5	Z5	X6	Y6	Z6	X7	Y7	Z7	X8	Y8	Z8	X9	Y9	Z9	X10	Y10	Z10	X11	Y11	Z11	X12	Y12	Z12	X13	Y13	Z13	X14	Y14	Z14	X15	Y15	Z15	X16	Y16	Z16	X17	Y17	Z17	X18	Y18	Z18	X19	Y19	Z19	X20	Y20	Z20	X21	Y21	Z21	X22	Y22	Z22	X23	Y23	Z23	X24	Y24	Z24	X25	Y25	Z25	X26	Y26	Z26	X27	Y27	Z27	X28	Y28	Z28	X29	Y29	Z29	X30	Y30	Z30	X31	Y31	Z31	X32	Y32	Z32	X33	Y33	Z33	X34	Y34	Z34	X35	Y35	Z35	X36	Y36	Z36	X37	Y37	Z37	X38	Y38	Z38	X39	Y39	Z39	X40	Y40	Z40	X41	Y41	Z41	X42	Y42	Z42	X43	Y43	Z43	X44	Y44	Z44	X45	Y45	Z45	X46	Y46	Z46	X47	Y47	Z47	X48	Y48	Z48	X49	Y49	Z49	X50	Y50	Z50	X51	Y51	Z51	X52	Y52	Z52	X53	Y53	Z53	X54	Y54	Z54	X55	Y55	Z55	X56	Y56	Z56	X57	Y57	Z57	X58	Y58	Z58	X59	Y59	Z59	X60	Y60	Z60	X61	Y61	Z61	X62	Y62	Z62	X63	Y63	Z63	X64	Y64	Z64	X65	Y65	Z65	X66	Y66	Z66	X67	Y67	Z67	X68	Y68	Z68	X69	Y69	Z69	X70	Y70	Z70	X71	Y71	Z71	X72	Y72	Z72	X73	Y73	Z73	X74	Y74	Z74	

106	17.217	-221.87504	1074.78394	734.20341	-288.50155	1090.59067	536.95427	-119.87393	1116.63475	445.35049	-35.68758	1098.34412	676.00449	-209.96439	1451.36505	646.94565	-96.52771	1504.72351	646.40610	-272.49283	1668.12744	641.14677	-113.67014	1654.53690	587.19128	-132.05729	1637.17896	733.27576	-174.13294	1457.99606	438.00468	-210.61028	1159.73961	305.56583	-192.97327	1130.35339	357.81822	-263.06351	1199.19540	354.34464	-420.83275	1048.28468	417.02160	-432.17400	1090.85182	430.52250	-407.82436	1088.44711	465.46547	-91.00860	1424.29138	820.70267	-79.09694	1104.61288	819.17343	-132.00439	1130.57129	887.81731	-63.92357	1123.35510	887.52991	-223.83551	884.58817	883.12714	-208.43460	873.95470	926.92711	-164.56554	865.43228	913.26096	-168.16410	926.12602	399.74899	-129.89164	890.92827	763.79730	-242.26692	424.29409	421.47999	-170.19711	455.48008	375.85918	-180.74093	427.86091	498.08514	-184.90776	444.71237	705.83817	-79.46918	469.98528	689.66263	-177.80178	444.06364	612.48047	-203.51418	183.74723	383.11104	-181.85255	174.54920	445.61302	-127.27112	175.73639	377.22366	-123.75840	161.04033	683.83125	-68.78515	166.17876	624.08813	-148.33606	174.65143	616.15974	-982.34299	1034.74411	471.47377	-969.75830	1039.48631	630.88276	-1127.40746	1036.18668	654.16214	-1106.44241	1041.27670	471.27529	-1041.51932	1382.87766	569.81709	-1182.71347	1401.53000	558.94592	-1004.22531	1600.82184	604.04957	-1156.19858	1539.49860	660.78049	-1131.23840	1557.68799	499.78893	-1111.51390	1358.87146	742.41776	-1035.29686	1093.13454	777.73903	-1086.11618	1052.59499	780.92789	-1042.60178	1084.92661	722.06589	-843.62961	1039.23851	672.79961	-847.58461	1084.69894	666.45927	-873.46817	1076.94839	636.95854	-1086.57852	1356.00693	389.27559	-1138.50449	1038.11951	350.70293	-1071.81030	1074.87526	379.93717	-1097.60849	1059.99123	330.36709	-929.02641	975.90096	459.60281	-923.10425	943.46634	429.54521	-899.71420	979.57626	413.40919	-1066.90041	875.72365	733.67172	-1038.71620	890.74692	396.00807	-1026.97205	451.78501	640.97008	-1134.55894	486.59668	686.41068	-1114.75975	486.17889	568.13118	-1012.39700	464.69604	508.15430	-1099.11461	480.45528	413.81748	-1119.90112	479.55643	538.29792	-1099.35486	165.95284	663.66508	-1132.48489	162.82135	597.74944	-1180.43419	154.20431	667.05750	-1068.01208	166.66477	456.51638	-1129.47128	168.26223	421.62567	-1126.99753	173.45881	510.99327 
107	17.233	-222.04226	1074.64577	735.28152	-288.22893	1090.68771	537.99259	-119.27825	1116.52962	446.88763	-35.85463	1098.00293	677.86255	-209.37483	1451.63406	648.24883	-95.61212	1504.26376	648.05710	-269.77201	1669.28513	641.66832	-110.79337	1653.88977	588.39329	-129.82780	1636.94717	734.43977	-172.59617	1457.55844	439.10034	-203.31108	1159.16901	305.81772	-185.22455	1129.69582	357.72121	-257.59218	1196.34773	354.23313	-412.16755	1039.34608	409.84955	-423.75004	1080.58640	426.84189	-398.84418	1075.93018	461.17554	-91.14984	1423.95981	822.51991	-79.67610	1104.26201	820.77827	-132.78289	1130.29533	889.15970	-64.65621	1122.95761	889.18053	-224.40035	884.00497	884.08218	-209.46232	873.66493	927.90733	-165.29222	865.06248	914.32419	-167.65965	926.07430	401.11412	-130.47959	890.71152	765.30151	-242.75085	424.30801	422.15591	-170.48567	455.59242	376.53008	-181.20569	427.69081	498.70903	-185.31036	444.53838	706.36971	-80.07452	469.76414	690.99747	-177.97123	444.07272	613.07270	-203.76528	183.83116	383.51547	-182.04233	174.54340	446.02100	-127.48302	175.89270	377.63191	-124.13260	160.97408	684.10057	-68.93793	166.12356	624.59648	-148.37699	174.59137	616.32698	-982.57072	1035.21034	471.99577	-970.39993	1039.65996	631.26411	-1128.38806	1035.73074	653.92601	-1106.66130	1041.14189	471.12247	-1043.00369	1382.21008	570.03448	-1183.93204	1402.59277	559.24454	-1002.45827	1599.35593	602.47662	-1155.55916	1541.32278	659.78554	-1130.09895	1557.28027	498.59634	-1111.98654	1357.22687	742.98637	-1036.83304	1090.40115	776.76315	-1088.59612	1050.76988	781.19072	-1046.14136	1082.13486	720.86105	-849.29649	1030.87791	666.92268	-852.36664	1076.37993	660.18875	-879.16801	1068.95241	631.33102	-1087.85301	1356.19568	389.89159	-1133.47710	1037.43011	349.37267	-1068.53767	1075.99968	380.74226	-1092.52586	1060.46310	330.34721	-925.86937	984.13208	464.79469	-917.85202	950.83633	435.99194	-894.89159	987.17781	419.74136	-1067.60315	875.62698	733.65646	-1038.38531	890.70007	396.10298	-1026.89461	451.78009	641.15807	-1134.53346	486.45973	686.33522	-1114.53835	486.06964	568.11192	-1012.31705	464.71611	508.49419	-1098.66035	480.42904	413.80730	-1119.73831	479.55997	538.29704	-1099.33807	165.86525	663.66570	-1132.44240	162.74519	597.72049	-1180.50797	154.16355	666.96602	-1067.88818	166.60917	456.62445	-1129.27582	168.28587	421.62052	-1126.94145	173.44950	510.97134 
108	17.250	-222.34446	1074.53651	736.48911	-288.31335	1090.97694	539.47521	-118.71878	1116.43295	448.50964	-35.95394	1097.69455	679.68948	-208.84508	1451.86295	649.57695	-94.74145	1503.79715	649.67529	-267.09167	1670.18204	642.50816	-108.19655	1653.28583	589.65225	-127.68570	1636.73737	735.65346	-171.07048	1457.16095	440.23628	-196.42719	1158.56430	306.66662	-178.05447	1128.80745	358.27869	-252.27188	1193.42720	354.82185	-403.20301	1030.22537	402.60986	-415.04814	1069.62479	423.34080	-389.62788	1062.55226	457.08107	-91.22841	1423.67615	824.23836	-80.03541	1103.99040	822.16187	-133.39137	1129.86847	890.57243	-65.20146	1122.59369	890.39268	-224.93723	883.42247	884.69025	-210.15825	873.20381	928.67073	-165.86493	864.59946	915.26962	-167.05097	925.99976	402.39254	-131.01494	890.50491	766.75804	-243.12580	424.29173	422.72495	-170.87053	455.66460	377.28508	-181.70969	427.64050	499.49547	-185.61720	444.47487	706.79207	-80.48600	469.56745	692.25258	-178.16435	444.01615	613.80981	-203.97686	183.89711	383.82576	-182.14443	174.52066	446.34132	-127.65957	176.00161	378.02376	-124.60423	160.80826	684.39117	-69.03108	166.08627	625.05535	-148.42179	174.52026	616.47438	-982.90657	1035.36034	472.47204	-970.77858	1040.62660	631.07418	-1129.31488	1035.27832	653.69209	-1106.85631	1040.83328	470.68417	-1044.76654	1381.49368	570.32383	-1185.14603	1403.71185	559.49509	-1000.58998	1597.76291	601.10100	-1154.49890	1543.14667	658.80577	-1128.95050	1556.96533	497.68055	-1112.46674	1355.34790	743.46207	-1038.55789	1087.56287	775.05157	-1090.71457	1048.64769	780.44113	-1049.26285	1079.21906	719.17892	-854.21600	1024.87953	663.38638	-856.40312	1069.28391	654.73541	-884.03114	1062.44247	626.71700	-1089.18678	1356.34644	390.45540	-1128.40828	1036.74622	348.60909	-1065.02846	1077.00157	381.86714	-1087.53105	1060.92369	330.74955	-922.71606	990.79704	470.12447	-912.87163	957.50916	441.81389	-890.18478	994.16428	425.73307	-1068.18695	875.50644	733.56621	-1037.98637	890.59418	396.21422	-1026.82106	451.78089	641.32988	-1134.60960	486.36581	686.31058	-1114.34135	485.99030	568.07957	-1012.06993	464.76910	508.72448	-1098.14651	480.37086	413.85712	-1119.56726	479.55334	538.26981	-1099.36829	165.80257	663.68340	-1132.35542	162.69602	597.70554	-1180.56885	154.10056	666.85570	-1067.77550	166.49742	456.79077	-1129.07402	168.27118	421.66821	-1126.90392	173.42052	511.01456 
109	17.267	-222.65484	1074.42337	737.65404	-287.61175	1090.76096	540.10651	-118.00493	1116.33072	449.91047	-36.05307	1097.45056	681.43745	-208.35512	1452.13974	650.89233	-93.90883	1503.37601	651.26511	-264.82428	1671.06262	643.28323	-105.79601	1652.71515	590.90801	-125.90230	1636.50513	736.93810	-169.62406	1456.75064	441.30653	-189.88857	1157.92007	308.00541	-170.94954	1128.06923	359.28726	-247.46614	1190.43289	355.73360	-394.03210	1020.78735	395.83443	-406.12953	1058.11539	419.74152	-379.97063	1048.69324	452.59693	-91.44587	1423.40912	826.08215	-80.42616	1103.73207	823.60382	-134.03132	1129.48975	891.69060	-65.85688	1122.27989	892.08519	-225.14866	882.84843	885.27351	-210.48624	872.56851	929.36188	-166.25690	864.23302	916.06682	-166.40537	925.93605	403.71101	-131.43682	890.31273	768.13599	-243.38600	424.34181	423.30616	-171.15740	455.68188	377.93022	-182.15479	427.58247	500.26192	-186.18128	444.36531	707.64229	-80.90229	469.44298	692.94586	-178.30801	443.96473	614.45457	-204.08396	183.97459	384.22356	-182.32559	174.57718	446.61705	-127.79856	176.10847	378.38760	-124.63125	160.48786	684.44977	-69.05468	166.11198	625.33009	-148.43401	174.48544	616.65779	-983.14529	1035.39513	472.83588	-971.56670	1040.80551	631.47133	-1130.20081	1034.77356	653.49976	-1107.75681	1040.69687	469.88411	-1046.60301	1380.66254	570.60188	-1186.33507	1404.87015	559.65759	-998.57010	1595.91553	599.80713	-1153.59512	1544.85779	658.05229	-1127.81654	1556.63712	496.78833	-1113.10806	1353.43033	744.05807	-1040.41855	1084.71092	772.69058	-1092.69821	1046.35574	778.90121	-1052.00073	1076.62575	716.94992	-858.37914	1017.88208	657.86621	-859.59335	1063.10303	650.17220	-887.73460	1057.02049	622.45697	-1090.44968	1356.38199	390.92739	-1123.54286	1036.11862	348.42003	-1061.04225	1078.02597	382.93922	-1082.78397	1061.27907	331.44901	-918.36189	996.61789	475.31307	-908.14880	963.40584	446.71074	-885.82977	1000.57411	431.19213	-1068.86093	875.42778	733.52592	-1037.52159	890.49301	396.39324	-1026.78970	451.83037	641.53816	-1134.64188	486.30951	686.27426	-1114.17007	485.94646	568.06232	-1011.89583	464.72942	509.02561	-1097.62527	480.32169	413.98342	-1119.33289	479.50275	538.30341	-1099.41422	165.74940	663.74611	-1132.26196	162.66268	597.69684	-1180.67970	154.06949	666.74545	-1067.64343	166.39658	456.90910	-1128.79318	168.29157	421.63410	-1126.90079	173.40891	511.05980 
